<svg width="20" height="20" viewBox="0 0 20 20" fill="none" xmlns="http://www.w3.org/2000/svg">
<path d="M2.8125 0C1.26168 0 0 1.26168 0 2.8125C0 4.36332 1.26168 5.625 2.8125 5.625C4.36332 5.625 5.625 4.36332 5.625 2.8125C5.625 1.26168 4.36332 0 2.8125 0ZM2.8125 4.375C1.95094 4.375 1.25 3.67406 1.25 2.8125C1.25 1.95094 1.95094 1.25 2.8125 1.25C3.67406 1.25 4.375 1.95094 4.375 2.8125C4.375 3.67406 3.67406 4.375 2.8125 4.375Z" fill="white"/>
<path d="M2.8125 7.1875C1.26168 7.1875 0 8.44918 0 10C0 11.5508 1.26168 12.8125 2.8125 12.8125C4.36332 12.8125 5.625 11.5508 5.625 10C5.625 8.44918 4.36332 7.1875 2.8125 7.1875ZM2.8125 11.5625C1.95094 11.5625 1.25 10.8616 1.25 10C1.25 9.13844 1.95094 8.4375 2.8125 8.4375C3.67406 8.4375 4.375 9.13844 4.375 10C4.375 10.8616 3.67406 11.5625 2.8125 11.5625Z" fill="white"/>
<path d="M2.8125 14.375C1.26168 14.375 0 15.6367 0 17.1875C0 18.7383 1.26168 20 2.8125 20C4.36332 20 5.625 18.7383 5.625 17.1875C5.625 15.6367 4.36332 14.375 2.8125 14.375ZM2.8125 18.75C1.95094 18.75 1.25 18.0491 1.25 17.1875C1.25 16.3259 1.95094 15.625 2.8125 15.625C3.67406 15.625 4.375 16.3259 4.375 17.1875C4.375 18.0491 3.67406 18.75 2.8125 18.75Z" fill="white"/>
<path d="M9.6875 5.625H17.1875C18.7383 5.625 20 4.36332 20 2.8125C20 1.26168 18.7383 0 17.1875 0H9.6875C8.13668 0 6.875 1.26168 6.875 2.8125C6.875 4.36332 8.13668 5.625 9.6875 5.625ZM9.6875 1.25H17.1875C18.0491 1.25 18.75 1.95094 18.75 2.8125C18.75 3.67406 18.0491 4.375 17.1875 4.375H9.6875C8.82594 4.375 8.125 3.67406 8.125 2.8125C8.125 1.95094 8.82594 1.25 9.6875 1.25Z" fill="white"/>
<path d="M17.1875 7.1875H9.6875C8.13668 7.1875 6.875 8.44918 6.875 10C6.875 11.5508 8.13668 12.8125 9.6875 12.8125H17.1875C18.7383 12.8125 20 11.5508 20 10C20 8.44918 18.7383 7.1875 17.1875 7.1875ZM17.1875 11.5625H9.6875C8.82594 11.5625 8.125 10.8616 8.125 10C8.125 9.13844 8.82594 8.4375 9.6875 8.4375H17.1875C18.0491 8.4375 18.75 9.13844 18.75 10C18.75 10.8616 18.0491 11.5625 17.1875 11.5625Z" fill="white"/>
<path d="M17.1875 14.375H9.6875C8.13668 14.375 6.875 15.6367 6.875 17.1875C6.875 18.7383 8.13668 20 9.6875 20H17.1875C18.7383 20 20 18.7383 20 17.1875C20 15.6367 18.7383 14.375 17.1875 14.375ZM17.1875 18.75H9.6875C8.82594 18.75 8.125 18.0491 8.125 17.1875C8.125 16.3259 8.82594 15.625 9.6875 15.625H17.1875C18.0491 15.625 18.75 16.3259 18.75 17.1875C18.75 18.0491 18.0491 18.75 17.1875 18.75Z" fill="white"/>
</svg>
