<svg width="28" height="28" viewBox="0 0 28 28" fill="none" xmlns="http://www.w3.org/2000/svg">
<g clip-path="url(#clip0)">
<path d="M25.8366 7.42426H17.0691C16.5848 7.42426 16.1924 7.03162 16.1924 6.54755V1.28687C16.1924 0.802795 16.5848 0.410156 17.0691 0.410156H25.8368C26.3209 0.410156 26.7135 0.802795 26.7135 1.28687V6.54755C26.7135 7.03162 26.3209 7.42426 25.8366 7.42426Z" fill="#C8C5C9"/>
<path d="M11.808 27.5898H1.28687C0.802795 27.5898 0.410156 27.1972 0.410156 26.7131V2.16379C0.410156 1.19522 1.19522 0.410156 2.16379 0.410156H10.9313C11.8999 0.410156 12.6849 1.19522 12.6849 2.16379V26.7131C12.6849 27.1972 12.2923 27.5898 11.808 27.5898Z" fill="#ECEAEC"/>
<path d="M7.42441 5.67062H5.67078C5.42874 5.67062 5.23242 5.4743 5.23242 5.23227V4.35535C5.23242 4.11331 5.42874 3.91699 5.67078 3.91699H7.42441C7.66644 3.91699 7.86276 4.11331 7.86276 4.35535V5.23206C7.86276 5.4743 7.66644 5.67062 7.42441 5.67062Z" fill="#DBEAFF"/>
<path d="M1.75513 23.2061V0.472168C1.00018 0.667847 0.410156 1.3476 0.410156 2.16385V26.7132C0.410156 27.1973 0.802795 27.5899 1.28687 27.5899H11.808C12.2923 27.5899 12.6847 27.1973 12.6847 26.7132V26.2748H4.82382C3.13171 26.2748 1.75513 24.898 1.75513 23.2061Z" fill="#DAD8DB"/>
<path d="M26.7133 27.59H16.1921C15.7079 27.59 15.3154 27.1973 15.3154 26.7133V13.5618C15.3154 13.0775 15.7079 12.6851 16.1921 12.6851H26.7133C27.1974 12.6851 27.59 13.0775 27.59 13.5618V26.7133C27.59 27.1973 27.1974 27.59 26.7133 27.59Z" fill="#ECEAEC"/>
<path d="M16.6617 23.6446V12.6851H16.1921C15.7079 12.6851 15.3154 13.0775 15.3154 13.5618V26.7133C15.3154 27.1973 15.7079 27.59 16.1921 27.59H26.7133C27.1974 27.59 27.59 27.1973 27.59 26.7133V26.2749H19.292C17.8417 26.2749 16.6617 25.0948 16.6617 23.6446Z" fill="#DAD8DB"/>
<path d="M24.9594 21.8908C24.9594 23.8278 23.3893 25.3979 21.4524 25.3979C19.5154 25.3979 17.9453 23.8278 17.9453 21.8908C17.9453 19.9539 19.5154 18.3838 21.4524 18.3838C23.3893 18.3838 24.9594 19.9539 24.9594 21.8908Z" fill="#DAD8DB"/>
<path d="M23.2063 21.8906C23.2063 22.8592 22.4212 23.6443 21.4526 23.6443C20.4843 23.6443 19.6992 22.8592 19.6992 21.8906C19.6992 20.9223 20.4843 20.1372 21.4526 20.1372C22.4212 20.1372 23.2063 20.9223 23.2063 21.8906Z" fill="white"/>
<path d="M17.0684 14.4385H19.6987V16.1921H17.0684V14.4385Z" fill="#C8C5C9"/>
<path d="M23.2058 15.3152C23.2058 15.7995 22.8131 16.1919 22.3289 16.1919C21.8448 16.1919 21.4521 15.7995 21.4521 15.3152C21.4521 14.8311 21.8448 14.4385 22.3289 14.4385C22.8131 14.4385 23.2058 14.8311 23.2058 15.3152Z" fill="white"/>
<path d="M21.4366 22.5322C21.1745 22.3925 20.9543 22.1727 20.8139 21.9108C20.4969 21.3203 20.5244 20.7581 20.7336 20.2949C19.8817 20.6797 19.3886 21.7191 19.9182 22.777C20.0573 23.0547 20.2882 23.2859 20.5661 23.4251C21.624 23.9549 22.6639 23.4619 23.0486 22.61C22.5863 22.8187 22.0258 22.8462 21.4366 22.5322Z" fill="#DBEAFF"/>
<path d="M21.8907 5.67062H18.3837C18.1416 5.67062 17.9453 5.4743 17.9453 5.23227V2.60193C17.9453 2.35968 18.1416 2.16357 18.3837 2.16357H21.8907C22.133 2.16357 22.3291 2.35968 22.3291 2.60193V5.23227C22.3291 5.4743 22.133 5.67062 21.8907 5.67062Z" fill="#DBEAFF"/>
<path d="M21.014 4.35556C20.0457 4.35556 19.2604 3.5705 19.2604 2.60193V2.16357H18.3837C18.1416 2.16357 17.9453 2.35989 17.9453 2.60193V5.23227C17.9453 5.47452 18.1416 5.67062 18.3837 5.67062H21.8907C22.133 5.67062 22.3291 5.47452 22.3291 5.23227V4.35556H21.014Z" fill="#C3DDFF"/>
<path d="M18.3842 5.67084C18.1421 5.67084 17.9458 5.47452 17.9458 5.23248V0.410156H17.0691C16.5848 0.410156 16.1924 0.802795 16.1924 1.28687V6.54755C16.1924 7.03162 16.5848 7.42426 17.0691 7.42426H25.8368C26.3209 7.42426 26.7135 7.03162 26.7135 6.54755V5.67084H18.3842Z" fill="#B6B1B7"/>
<path d="M26.7131 12.2748H21.8626V7.83441H25.8364C26.5459 7.83441 27.1233 7.2572 27.1233 6.54755V1.28687C27.1233 0.577423 26.5459 0 25.8364 0H17.0687C16.359 0 15.7818 0.577423 15.7818 1.28687V3.50705H13.0951V2.16357C13.0951 0.970703 12.1244 0 10.9313 0H2.16357C0.970703 0 0 0.970703 0 2.16357V26.7131C0 27.4226 0.577423 28 1.28687 28H11.808C12.5177 28 13.0949 27.4226 13.0949 26.7131V20.5475H14.9049V26.7131C14.9049 27.4228 15.4823 28 16.1918 28H26.7131C27.4226 28 28 27.4226 28 26.7131V13.5616C28 12.852 27.4226 12.2748 26.7131 12.2748ZM27.1797 13.5616V15.7818H23.5282C23.5848 15.637 23.6162 15.4798 23.6162 15.3153C23.6162 14.6056 23.0388 14.0282 22.3294 14.0282C21.6197 14.0282 21.0423 14.6056 21.0423 15.3153C21.0423 15.4798 21.0737 15.637 21.1303 15.7818H20.1092V14.4384C20.1092 14.2119 19.9255 14.0282 19.699 14.0282H17.0687C16.8423 14.0282 16.6585 14.2119 16.6585 14.4384V15.7818H15.7254V13.5616C15.7254 13.3042 15.9348 13.0951 16.192 13.0951H26.7131C26.9703 13.0951 27.1797 13.3042 27.1797 13.5616ZM21.8626 15.3151C21.8626 15.0579 22.072 14.8485 22.3292 14.8485C22.5866 14.8485 22.7959 15.0579 22.7959 15.3151C22.7959 15.5725 22.5866 15.7816 22.3292 15.7816C22.072 15.7816 21.8626 15.5725 21.8626 15.3151ZM17.4789 15.7818V14.8485H19.2889V15.7818H17.4789ZM25.8364 7.0141H24.493V3.45065H26.303V6.54755C26.303 6.80475 26.0936 7.0141 25.8364 7.0141ZM26.303 1.28687V2.63034H24.493V0.820312H25.8362C26.0936 0.820312 26.303 1.02966 26.303 1.28687ZM16.6021 1.28687C16.6021 1.02966 16.8115 0.820312 17.0687 0.820312H23.6726V7.0141H17.0687C16.8113 7.0141 16.6021 6.80475 16.6021 6.54755V1.28687ZM0.820312 18.3556H1.72522C1.74081 18.3556 1.75342 18.3682 1.75342 18.3838V21.4525C1.75342 21.468 1.74081 21.4807 1.72522 21.4807H0.820312V18.3556ZM0.820312 10.9031H1.72522C1.74081 10.9031 1.75342 10.9157 1.75342 10.9313V14C1.75342 14.0156 1.74081 14.0282 1.72522 14.0282H0.820312V10.9031ZM12.2748 26.7131C12.2748 26.9703 12.0654 27.1797 11.8082 27.1797H1.28687C1.02966 27.1797 0.820312 26.9703 0.820312 26.7131V22.301H1.72522C2.19327 22.301 2.57373 21.9205 2.57373 21.4525V18.3838C2.57373 17.9159 2.19327 17.5352 1.72522 17.5352H0.820312V16.6021H10.0546C10.281 16.6021 10.4648 16.4184 10.4648 16.192C10.4648 15.9655 10.281 15.7818 10.0546 15.7818H0.820312V14.8487H1.72522C2.19327 14.8487 2.57373 14.468 2.57373 14.0002V10.9315C2.57373 10.4635 2.19327 10.0828 1.72522 10.0828H0.820312V2.16357C0.820312 1.42294 1.42294 0.820312 2.16357 0.820312H10.9313C11.6721 0.820312 12.2746 1.42294 12.2746 2.16357V15.7816H11.8082C11.5818 15.7816 11.3981 15.9653 11.3981 16.1918C11.3981 16.4184 11.5818 16.6019 11.8082 16.6019H12.2746V26.7131H12.2748ZM13.0951 19.7272V4.32736H15.7818V6.54755C15.7818 7.2572 16.359 7.83441 17.0687 7.83441H21.0423V12.2748H16.192C15.4823 12.2748 14.9051 12.852 14.9051 13.5616V19.7272H13.0951ZM26.7131 27.1797H16.192C15.9346 27.1797 15.7254 26.9703 15.7254 26.7131V16.6021H27.1797V26.7131C27.1797 26.9703 26.9703 27.1797 26.7131 27.1797Z" fill="black"/>
<path d="M7.42441 3.50684H5.67078C5.20294 3.50684 4.82227 3.88751 4.82227 4.35535V5.23206C4.82227 5.7001 5.20294 6.08057 5.67078 6.08057H7.42441C7.89224 6.08057 8.27292 5.7001 8.27292 5.23206V4.35535C8.27292 3.88751 7.89224 3.50684 7.42441 3.50684ZM7.45261 5.23206C7.45261 5.24765 7.44 5.26025 7.42441 5.26025H5.67078C5.65518 5.26025 5.64258 5.24765 5.64258 5.23206V4.35535C5.64258 4.33975 5.65518 4.32715 5.67078 4.32715H7.42441C7.44 4.32715 7.45261 4.33975 7.45261 4.35535V5.23206Z" fill="black"/>
<path d="M24.5215 14.8486H25.8365C26.0632 14.8486 26.2467 14.6649 26.2467 14.4385C26.2467 14.212 26.0632 14.0283 25.8365 14.0283H24.5215C24.295 14.0283 24.1113 14.212 24.1113 14.4385C24.1113 14.6649 24.295 14.8486 24.5215 14.8486Z" fill="black"/>
<path d="M21.4524 17.9736C19.2924 17.9736 17.5352 19.7309 17.5352 21.8908C17.5352 24.0508 19.2924 25.808 21.4524 25.808C23.6123 25.808 25.3696 24.0508 25.3696 21.8908C25.3696 19.7309 23.6123 17.9736 21.4524 17.9736ZM21.4524 24.9877C19.7447 24.9877 18.3555 23.5985 18.3555 21.8908C18.3555 20.1831 19.7449 18.7939 21.4524 18.7939C23.1601 18.7939 24.5493 20.1833 24.5493 21.8908C24.5493 23.5985 23.1601 24.9877 21.4524 24.9877Z" fill="black"/>
<path d="M23.0484 21.0545C22.829 21.1111 22.697 21.3346 22.7536 21.554C22.7818 21.6633 22.7961 21.7766 22.7961 21.8906C22.7961 22.6315 22.1935 23.2341 21.4526 23.2341C20.712 23.2341 20.1094 22.6315 20.1094 21.8906C20.1094 21.15 20.712 20.5474 21.4526 20.5474C21.5667 20.5474 21.6799 20.5615 21.7889 20.5897C22.0083 20.6461 22.2319 20.514 22.2883 20.2946C22.3449 20.0755 22.2129 19.8518 21.9935 19.7952C21.8177 19.7499 21.6357 19.7271 21.4526 19.7271C20.2596 19.7271 19.2891 20.6975 19.2891 21.8906C19.2891 23.0837 20.2596 24.0544 21.4526 24.0544C22.6457 24.0544 23.6164 23.0837 23.6164 21.8906C23.6164 21.7076 23.5934 21.5253 23.5481 21.3493C23.4915 21.1299 23.2676 20.9981 23.0484 21.0545Z" fill="black"/>
<path d="M17.9453 6.08078H22.3293C22.5557 6.08078 22.7394 5.89728 22.7394 5.67062V2.16357C22.7394 1.93713 22.5557 1.75342 22.3293 1.75342H21.4526C21.2261 1.75342 21.0424 1.93713 21.0424 2.16357C21.0424 2.39023 21.2261 2.57373 21.4526 2.57373H21.9191V5.26047H18.3555V2.57373H19.6989C19.9254 2.57373 20.1091 2.39023 20.1091 2.16357C20.1091 1.93713 19.9254 1.75342 19.6989 1.75342H17.9453C17.7189 1.75342 17.5352 1.93713 17.5352 2.16357V5.67062C17.5352 5.89728 17.7189 6.08078 17.9453 6.08078Z" fill="black"/>
</g>
<defs>
<clipPath id="clip0">
<rect width="28" height="28" fill="white"/>
</clipPath>
</defs>
</svg>
