<svg width="20" height="20" viewBox="0 0 20 20" fill="none" xmlns="http://www.w3.org/2000/svg">
<g clip-path="url(#clip0)">
<path d="M18.0893 0H1.91174C1.15747 0 0.714078 0.850096 1.14625 1.46867C1.15457 1.48047 0.890167 1.1204 7.31922 9.87147C7.46344 10.0801 7.53965 10.3243 7.53965 10.5781V19.0121C7.53965 19.8322 8.47982 20.2846 9.11734 19.8022L11.8577 17.7365C12.2358 17.4557 12.4614 17.0072 12.4614 16.5361V10.5781C12.4614 10.3243 12.5376 10.0801 12.6818 9.87147C19.1059 1.12712 18.8465 1.48039 18.8548 1.46867C19.2868 0.850369 18.8439 0 18.0893 0V0ZM11.7329 9.18379C11.4672 9.54538 11.2896 10.0495 11.2896 10.578V16.536C11.2896 16.6381 11.2405 16.7353 11.1585 16.796C11.0864 16.8491 11.6328 16.4384 8.71149 18.6406V10.5781C8.71149 10.081 8.56099 9.60276 8.27627 9.1952C8.2692 9.18508 8.46759 9.45531 4.24739 3.71088H15.7536L11.7329 9.18379ZM16.6145 2.539H3.38651L2.38212 1.17185H17.6189L16.6145 2.539Z" fill="#DC2E45"/>
</g>
<defs>
<clipPath id="clip0">
<rect width="20" height="20" fill="white"/>
</clipPath>
</defs>
</svg>
