<svg width="24" height="23" viewBox="0 0 24 23" fill="none" xmlns="http://www.w3.org/2000/svg">
<path d="M22.3116 11.1523H13.6035C13.224 11.1523 12.916 10.8443 12.916 10.4648C12.916 10.0853 13.224 9.77734 13.6035 9.77734H22.3116C22.6911 9.77734 22.9991 10.0853 22.9991 10.4648C22.9991 10.8443 22.6911 11.1523 22.3116 11.1523Z" fill="white" stroke="white" stroke-width="0.3"/>
<path d="M18.8748 14.5898C18.6987 14.5898 18.5228 14.5228 18.3889 14.3882C18.1204 14.1195 18.1204 13.6841 18.3889 13.4156L21.3406 10.4641L18.3889 7.51239C18.1204 7.24384 18.1204 6.80846 18.3889 6.53992C18.6576 6.2712 19.093 6.2712 19.3616 6.53992L22.799 9.97732C23.0675 10.2459 23.0675 10.6813 22.799 10.9498L19.3616 14.3872C19.2268 14.5228 19.0509 14.5898 18.8748 14.5898Z" fill="white" stroke="white" stroke-width="0.3"/>
<path d="M8.33317 22.8397C8.13697 22.8397 7.95083 22.8122 7.76486 22.7544L2.24841 20.9166C1.49782 20.6544 1 19.955 1 19.1732V2.67367C1 1.66259 1.82226 0.840332 2.83334 0.840332C3.02937 0.840332 3.21551 0.867858 3.40165 0.925596L8.91793 2.76346C9.66869 3.02563 10.1663 3.72503 10.1663 4.50683V21.0063C10.1663 22.0174 9.34425 22.8397 8.33317 22.8397ZM2.83334 2.21529C2.58124 2.21529 2.37496 2.42157 2.37496 2.67367V19.1732C2.37496 19.3684 2.50604 19.5498 2.69302 19.6149L8.18363 21.4446C8.22307 21.4573 8.27443 21.4647 8.33317 21.4647C8.58527 21.4647 8.79138 21.2584 8.79138 21.0063V4.50683C8.79138 4.31164 8.6603 4.1302 8.47332 4.06508L2.98271 2.23543C2.94327 2.22268 2.89191 2.21529 2.83334 2.21529Z" fill="white" stroke="white" stroke-width="0.3"/>
<path d="M14.9784 8.17351C14.5989 8.17351 14.2909 7.86552 14.2909 7.48603V3.36115C14.2909 2.72956 13.7768 2.21529 13.1452 2.21529H2.83299C2.4535 2.21529 2.14551 1.9073 2.14551 1.52781C2.14551 1.14832 2.4535 0.840332 2.83299 0.840332H13.1452C14.5358 0.840332 15.6658 1.97058 15.6658 3.36115V7.48603C15.6658 7.86552 15.3578 8.17351 14.9784 8.17351Z" fill="white" stroke="white" stroke-width="0.3"/>
<path d="M13.1452 20.09H9.4785C9.09901 20.09 8.79102 19.782 8.79102 19.4025C8.79102 19.023 9.09901 18.715 9.4785 18.715H13.1452C13.7768 18.715 14.2909 18.2008 14.2909 17.5692V13.4443C14.2909 13.0648 14.5988 12.7568 14.9783 12.7568C15.3578 12.7568 15.6658 13.0648 15.6658 13.4443V17.5692C15.6658 18.9598 14.5357 20.09 13.1452 20.09Z" fill="white" stroke="white" stroke-width="0.3"/>
</svg>
