<svg width="20" height="21" viewBox="0 0 20 21" fill="none" xmlns="http://www.w3.org/2000/svg">
<g clip-path="url(#clip0)">
<path d="M8.01465 6.37305H11.7357C12.0593 6.37305 12.3216 6.1107 12.3216 5.78711C12.3216 5.46352 12.0593 5.20117 11.7357 5.20117H8.01465C7.69105 5.20117 7.42871 5.46352 7.42871 5.78711C7.42871 6.1107 7.69101 6.37305 8.01465 6.37305Z" fill="white"/>
<path d="M14.298 0.760742H0.585937C0.262344 0.760742 0 1.02309 0 1.34668V20.1748C0 20.4984 0.262344 20.7607 0.585937 20.7607H14.298C14.6216 20.7607 14.884 20.4984 14.884 20.1748V1.34668C14.884 1.02309 14.6216 0.760742 14.298 0.760742ZM13.7121 19.5889H1.17187V1.93262H13.7121V19.5889Z" fill="white"/>
<path d="M19.9999 14.96V2.74945C19.9999 1.65289 19.1078 0.760742 18.0112 0.760742C16.9146 0.760742 16.0225 1.65289 16.0225 2.74945V14.96C16.0225 15.2657 16.2567 15.5164 16.5554 15.5432L16.0574 16.919C16.0051 17.0637 16.0117 17.2231 16.0759 17.3628L17.4787 20.4192C17.5742 20.6273 17.7822 20.7607 18.0112 20.7607C18.2402 20.7607 18.4483 20.6273 18.5438 20.4192L19.9465 17.3628C20.0107 17.223 20.0173 17.0636 19.965 16.919L19.467 15.5432C19.7657 15.5164 19.9999 15.2657 19.9999 14.96ZM17.1944 14.3741V5.63988H18.8281V14.3741H17.1944V14.3741ZM18.0112 1.93262C18.4616 1.93262 18.8281 2.29906 18.8281 2.74945V4.46801H17.1944V2.74945C17.1944 2.29906 17.5608 1.93262 18.0112 1.93262ZM18.0112 18.7701L17.2411 17.0922L17.8007 15.5459H18.2217L18.7814 17.0922L18.0112 18.7701Z" fill="white"/>
<path d="M3.54264 6.90111C3.65252 7.01099 3.80154 7.07275 3.95693 7.07275C4.11232 7.07275 4.26139 7.01099 4.37123 6.90115L6.15103 5.12135C6.37986 4.89252 6.37986 4.52154 6.15103 4.29271C5.92225 4.06389 5.55123 4.06389 5.3224 4.29271L3.95693 5.65818L3.53248 5.23365C3.30373 5.00482 2.93271 5.00482 2.70385 5.23365C2.47502 5.46248 2.47502 5.83346 2.70385 6.06228L3.54264 6.90111Z" fill="white"/>
<path d="M8.01465 9.92822H11.7357C12.0593 9.92822 12.3216 9.66588 12.3216 9.34228C12.3216 9.01869 12.0593 8.75635 11.7357 8.75635H8.01465C7.69105 8.75635 7.42871 9.01869 7.42871 9.34228C7.42871 9.66588 7.69101 9.92822 8.01465 9.92822Z" fill="white"/>
<path d="M3.54264 10.4563C3.65252 10.5662 3.80154 10.6279 3.95693 10.6279C4.11232 10.6279 4.26139 10.5662 4.37123 10.4563L6.15103 8.67652C6.37986 8.4477 6.37986 8.07672 6.15103 7.84789C5.92225 7.61906 5.55123 7.61906 5.3224 7.84789L3.95693 9.21336L3.53248 8.78891C3.30373 8.56008 2.93271 8.56008 2.70385 8.78891C2.47502 9.01774 2.47502 9.38871 2.70385 9.61754L3.54264 10.4563Z" fill="white"/>
<path d="M8.01465 13.4829H11.7357C12.0593 13.4829 12.3216 13.2206 12.3216 12.897C12.3216 12.5734 12.0593 12.311 11.7357 12.311H8.01465C7.69105 12.311 7.42871 12.5734 7.42871 12.897C7.42871 13.2206 7.69101 13.4829 8.01465 13.4829Z" fill="white"/>
<path d="M8.01465 17.1738H11.7357C12.0593 17.1738 12.3216 16.9115 12.3216 16.5879C12.3216 16.2643 12.0593 16.002 11.7357 16.002H8.01465C7.69105 16.002 7.42871 16.2643 7.42871 16.5879C7.42871 16.9115 7.69101 17.1738 8.01465 17.1738Z" fill="white"/>
<path d="M3.54265 14.0109C3.65254 14.1208 3.80156 14.1826 3.95695 14.1826C4.11234 14.1826 4.2614 14.1208 4.37125 14.011L6.15105 12.2312C6.37988 12.0024 6.37988 11.6314 6.15105 11.4026C5.92227 11.1737 5.55125 11.1738 5.32242 11.4026L3.95695 12.768L3.5325 12.3435C3.30375 12.1147 2.93273 12.1147 2.70386 12.3435C2.475 12.5723 2.47503 12.9433 2.70386 13.1721L3.54265 14.0109Z" fill="white"/>
</g>
<defs>
<clipPath id="clip0">
<rect width="20" height="20" fill="white" transform="translate(0 0.760742)"/>
</clipPath>
</defs>
</svg>
