<svg width="18" height="23" viewBox="0 0 18 23" fill="none" xmlns="http://www.w3.org/2000/svg">
<path d="M13.3379 5.112C11.3596 2.74666 9.40749 1.20952 9.32534 1.14526C8.88024 0.79706 8.22625 1.11398 8.22625 1.68076V4.67098C8.22625 6.21521 6.18306 6.75879 5.41683 5.41643C5.18019 5.00188 4.60151 4.95496 4.30031 5.32254C2.24187 7.83429 0.40625 11.0005 0.40625 14.2608C0.40625 18.9477 4.21935 22.7608 8.90625 22.7608C13.5932 22.7608 17.4062 18.9477 17.4062 14.2608C17.4062 10.9155 15.4734 7.66531 13.3379 5.112ZM8.90625 21.4008C4.96922 21.4008 1.76625 18.1978 1.76625 14.2608C1.76625 11.5178 3.33463 8.80465 4.83832 6.83406C6.61971 8.40724 9.58625 7.19832 9.58625 4.67098V3.16486C12.6017 5.91984 16.0463 10.1837 16.0463 14.2608C16.0463 18.1978 12.8433 21.4008 8.90625 21.4008Z" fill="white" stroke="white" stroke-width="0.3"/>
<path d="M11.7042 10.6638C11.4078 10.4332 10.9806 10.4866 10.75 10.783L5.98998 16.903C5.64029 17.3527 5.96792 18.0006 6.52629 18.0006C6.72893 18.0006 6.92944 17.9103 7.06353 17.738L11.8235 11.618C12.0541 11.3216 12.0007 10.8943 11.7042 10.6638Z" fill="white"/>
<path d="M11.2868 18.0008C12.0379 18.0008 12.6468 17.3919 12.6468 16.6408C12.6468 15.8897 12.0379 15.2808 11.2868 15.2808C10.5357 15.2808 9.92676 15.8897 9.92676 16.6408C9.92676 17.3919 10.5357 18.0008 11.2868 18.0008Z" fill="white"/>
<path d="M6.52601 13.241C7.27712 13.241 7.88601 12.6321 7.88601 11.881C7.88601 11.1299 7.27712 10.521 6.52601 10.521C5.77491 10.521 5.16602 11.1299 5.16602 11.881C5.16602 12.6321 5.77491 13.241 6.52601 13.241Z" fill="white"/>
</svg>
