<svg width="22" height="25" viewBox="0 0 22 25" fill="none" xmlns="http://www.w3.org/2000/svg">
<path d="M11 24.4857C8.407 24.4857 5.962 24.1252 4.11545 23.4706C2.0773 22.7482 1 21.7619 1 20.6182C1 19.9163 1.4284 18.8953 3.469 18.0181C3.72285 17.909 4.0168 18.0262 4.12585 18.2799C4.2349 18.5336 4.11765 18.8277 3.864 18.9367C2.6794 19.446 2 20.0589 2 20.6182C2 21.2705 2.9157 21.9844 4.44955 22.5281C6.19155 23.1456 8.5179 23.4857 11 23.4857C13.4821 23.4857 15.8085 23.1456 17.5505 22.5281C19.0843 21.9844 20 21.2705 20 20.6182C20 20.5385 19.9871 20.4607 19.9606 20.3801C19.8743 20.1178 20.017 19.8352 20.2792 19.7488C20.5417 19.6627 20.8242 19.8052 20.9105 20.0675C20.9699 20.248 21 20.4332 21 20.6182C21 21.7619 19.9227 22.7482 17.8846 23.4707C16.038 24.1252 13.593 24.4857 11 24.4857ZM11 22.2968C9.62115 22.2968 8.31835 22.1363 7.33165 21.8449C6.12455 21.4883 5.5125 20.9765 5.5125 20.3236C5.5125 19.2543 7.17365 18.7685 8.4308 18.5541C8.27045 18.3445 8.11205 18.1364 7.95635 17.9309C7.32895 18.0078 6.72545 18.1087 6.1586 18.2315C5.8888 18.29 5.62255 18.1186 5.56405 17.8487C5.5056 17.5789 5.67695 17.3127 5.94685 17.2542C6.63145 17.1058 7.3653 16.9882 8.1279 16.9043C8.303 16.8852 8.47535 16.9594 8.5815 17.0999C8.95635 17.5962 9.3489 18.1101 9.7482 18.6274C9.85905 18.771 9.88345 18.9633 9.81195 19.13C9.74045 19.2967 9.58425 19.4117 9.40385 19.4303C7.3989 19.6376 6.60245 20.1438 6.516 20.3233C6.56315 20.4157 6.8635 20.6847 7.76555 20.9284C8.64515 21.166 9.7938 21.2968 10.9999 21.2968C12.206 21.2968 13.3548 21.166 14.2344 20.9284C15.135 20.6851 15.4358 20.4166 15.4837 20.3238C15.4448 20.2508 15.2283 20.0431 14.6058 19.8315C13.9758 19.6173 13.1095 19.4614 12.1663 19.3924C11.9827 19.3789 11.8213 19.2658 11.7462 19.0977C11.6711 18.9297 11.6945 18.734 11.8069 18.5883C12.2062 18.0707 12.5998 17.5551 12.9768 17.0557C13.081 16.9176 13.2493 16.8436 13.4213 16.8589C15.5621 17.0544 17.4828 17.514 18.8296 18.1531C19.0791 18.2714 19.1854 18.5696 19.0671 18.8191C18.9487 19.0686 18.6504 19.1749 18.4011 19.0565C17.2144 18.4935 15.52 18.0791 13.6059 17.8816C13.4538 18.0825 13.2992 18.2856 13.1431 18.4901C14.4867 18.6741 16.4874 19.1461 16.4874 20.3236C16.4874 20.9765 15.8754 21.4883 14.6683 21.8449C13.6817 22.1363 12.3788 22.2968 11 22.2968Z" fill="white" stroke="white" stroke-width="0.3"/>
<path d="M11.0002 22.2967C9.62134 22.2967 8.31859 22.1362 7.33184 21.8447C6.12474 21.4881 5.5127 20.9763 5.5127 20.3234C5.5127 18.973 8.16214 18.5532 9.30124 18.4354C9.47334 18.4177 9.64264 18.4902 9.74844 18.6272C10.1616 19.1625 10.5141 19.6132 10.7627 19.9294C11.0173 19.6055 11.3808 19.1406 11.8071 18.5881C11.9096 18.4553 12.0719 18.3828 12.2394 18.3949C13.236 18.4678 16.4876 18.8223 16.4876 20.3234C16.4876 20.9763 15.8756 21.4881 14.6685 21.8447C13.6818 22.1362 12.379 22.2967 11.0002 22.2967ZM6.51624 20.3232C6.56339 20.4156 6.86379 20.6846 7.76579 20.9282C8.64544 21.1658 9.79409 21.2967 11.0002 21.2967C12.2063 21.2967 13.355 21.1658 14.2346 20.9282C15.1352 20.685 15.436 20.4164 15.4839 20.3236C15.445 20.2506 15.2285 20.043 14.606 19.8313C14.0358 19.6374 13.2719 19.4913 12.4325 19.4141C11.6806 20.3859 11.1592 21.0405 11.1536 21.0475C11.0588 21.1666 10.9148 21.2359 10.7626 21.2359C10.6104 21.2359 10.4665 21.1665 10.3716 21.0475C10.3662 21.0407 9.86144 20.4068 9.12924 19.4613C7.32574 19.6843 6.59859 20.1521 6.51624 20.3232Z" fill="white"/>
<path d="M10.7623 21.2361C10.61 21.2361 10.4661 21.1667 10.3712 21.0477C10.3654 21.0404 9.78061 20.3061 8.95651 19.2385C8.55501 18.7184 8.16036 18.2017 7.78341 17.7027C4.80571 13.7605 3.18706 11.2709 2.97236 10.303C2.97176 10.3002 2.97116 10.2975 2.97061 10.2947L2.91896 10.0415C2.91836 10.0386 2.91776 10.0356 2.91721 10.0326C2.82961 9.55963 2.78516 9.07498 2.78516 8.59223C2.78516 4.74748 5.54756 1.46798 9.35346 0.794235C9.62531 0.745885 9.88481 0.927485 9.93296 1.19943C9.98111 1.47138 9.79971 1.73078 9.52776 1.77893C6.20026 2.36798 3.78511 5.23338 3.78511 8.59228C3.78511 9.01258 3.82366 9.43438 3.89961 9.84613L3.94941 10.09C4.03561 10.4701 4.66176 11.9108 8.58131 17.1C8.95616 17.5962 9.34871 18.1101 9.74801 18.6275C10.1614 19.1628 10.5137 19.6135 10.7623 19.9296C11.0169 19.6057 11.3804 19.1408 11.8067 18.5883C12.206 18.0707 12.5996 17.5551 12.9766 17.0557C16.867 11.9018 17.4892 10.4687 17.5751 10.0901L17.6249 9.84623C17.7009 9.43423 17.7394 9.01238 17.7394 8.59233C17.7394 5.16073 15.2632 2.28513 11.8515 1.75483C11.5786 1.71243 11.3918 1.45683 11.4342 1.18398C11.4766 0.911085 11.7327 0.724535 12.0051 0.766685C13.863 1.05543 15.5665 1.99688 16.802 3.41748C18.0513 4.85403 18.7393 6.69183 18.7393 8.59228C18.7393 9.07473 18.6949 9.55933 18.6073 10.0326C18.6067 10.0356 18.6062 10.0386 18.6055 10.0416L18.5539 10.2947C18.5533 10.2975 18.5528 10.3002 18.5521 10.303C18.3383 11.2672 16.7309 13.7419 13.7747 17.6582C13.3956 18.1604 12.9999 18.6789 12.5984 19.1992C11.758 20.2883 11.1592 21.0403 11.1532 21.0478C11.0584 21.1668 10.9145 21.2361 10.7623 21.2361Z" fill="white" stroke="white" stroke-width="0.3"/>
<path d="M10.7629 11.7911C8.8006 11.7911 7.2041 10.2049 7.2041 8.25519C7.2041 6.30549 8.8006 4.71924 10.7629 4.71924C12.7253 4.71924 14.3218 6.30549 14.3218 8.25519C14.3218 10.2049 12.7253 11.7911 10.7629 11.7911ZM10.7629 5.71924C9.352 5.71924 8.2041 6.85684 8.2041 8.25519C8.2041 9.65354 9.352 10.7911 10.7629 10.7911C12.1739 10.7911 13.3218 9.65354 13.3218 8.25519C13.3218 6.85684 12.1739 5.71924 10.7629 5.71924Z" fill="white"/>
<path d="M10.7629 11.7911C8.8006 11.7911 7.2041 10.2049 7.2041 8.25519C7.2041 6.30549 8.8006 4.71924 10.7629 4.71924C12.7253 4.71924 14.3218 6.30549 14.3218 8.25519C14.3218 10.2049 12.7253 11.7911 10.7629 11.7911ZM10.7629 5.71924C9.352 5.71924 8.2041 6.85684 8.2041 8.25519C8.2041 9.65354 9.352 10.7911 10.7629 10.7911C12.1739 10.7911 13.3218 9.65354 13.3218 8.25519C13.3218 6.85684 12.1739 5.71924 10.7629 5.71924Z" fill="white" stroke="white" stroke-width="0.3"/>
</svg>
